<svg xmlns="http://www.w3.org/2000/svg" viewBox="0 0 100 100">
  <defs>
    <linearGradient id="blueGrad" x1="0%" y1="0%" x2="100%" y2="100%">
      <stop offset="0%" style="stop-color:#64B5F6"/>
      <stop offset="100%" style="stop-color:#1976D2"/>
    </linearGradient>
    <linearGradient id="orangeGrad" x1="0%" y1="0%" x2="100%" y2="100%">
      <stop offset="0%" style="stop-color:#FFB74D"/>
      <stop offset="100%" style="stop-color:#F57C00"/>
    </linearGradient>
  </defs>
  <!-- Blue Pin -->
  <path d="M30 15 C15 15 5 28 5 40 C5 55 30 75 30 75 C30 75 55 55 55 40 C55 28 45 15 30 15 Z" fill="url(#blueGrad)"/>
  <text x="30" y="48" font-family="Arial, sans-serif" font-size="24" font-weight="bold" fill="white" text-anchor="middle">P</text>
  <!-- Orange Pin -->
  <path d="M70 25 C55 25 45 38 45 50 C45 65 70 85 70 85 C70 85 95 65 95 50 C95 38 85 25 70 25 Z" fill="url(#orangeGrad)"/>
  <text x="70" y="58" font-family="Arial, sans-serif" font-size="24" font-weight="bold" fill="white" text-anchor="middle">P</text>
  <!-- Arrow -->
  <path d="M45 30 L55 25 L55 35 Z" fill="#FF9800"/>
  <path d="M55 60 L45 65 L45 55 Z" fill="#2196F3"/>
</svg>
